# xmcd
#
# Track frame offsets: 
#        150
#        14494
#        29028
#        42882
#        62430
#        79533
#        96648
#        110813
#        125298
#        142910
#        157104
#        169855
#        184736
#        201035
#        218897
#        234187
#        252225
#        268968
#        284523
#        311671
#
# Disc length: 4753 seconds
#
# Revision: 0
# Processed by: cddbd v1.5.2PL0 Copyright (c) Steve Scherf et al.
# Submitted via: ExactAudioCopy v1.0b3
#
DISCID=28128f14
DTITLE=Various Artist - Dance Charts Pur 2008.1 - CD 2
DYEAR=1900
DGENRE=
TTITLE0=Ivory - Ghostbusters (Cuba Club Radio Mix)
TTITLE1=Alan Master T. - People Hold On (Radio Mix)
TTITLE2=Kenobi - Funky Beatz (Krafft Short Mix)
TTITLE3=Brooklyn Bounce - The Theme (Of Progressive Attack) Recall  08
TTITLE3=(Single Edit)
TTITLE4=Jill Razer - Apologize (Belmond and Parker Tribelectro Edit)
TTITLE5=Bangbros - I Engineer (Single Edit)
TTITLE6=German Groove Guards - Please Don´t Go 2002 (Radio Version)
TTITLE7=Hands Up Squad - Alice In Wonderland (Radio Mix)
TTITLE8=Belmond and Parker - Sax U Up (Radio Mix)
TTITLE9=E-Mine Vs. Disco Punks - U Never (Original Radio Edit)
TTITLE10=Jakarta - One Desire (Limited Short Edit)
TTITLE11=Pad-Trick Vs. Mirco B. - Hard Bass (Single Edit)
TTITLE12=Kim Leoni - Medicine (Topmodelz Radio Mix)
TTITLE13=M+M Martha and The Muffins - Echo Beach 2008 (Disco Boys Mix Ed
TTITLE13=it)
TTITLE14=Verano - You're My Angel (Degrees Airplay Mix)
TTITLE15=Mike Mash - Magic (Radio Edit)
TTITLE16=Sutra Jumpers - Motha Fuck (Radio Mix)
TTITLE17=Jacky P. - I Get It Real (Radio Mix)
TTITLE18=Xtatica - One Missed Call (Radio Edit)
TTITLE19=Data-Track
EXTD=
EXTT0=
EXTT1=
EXTT2=
EXTT3=
EXTT4=
EXTT5=
EXTT6=
EXTT7=
EXTT8=
EXTT9=
EXTT10=
EXTT11=
EXTT12=
EXTT13=
EXTT14=
EXTT15=
EXTT16=
EXTT17=
EXTT18=
EXTT19=
PLAYORDER=
